<?xml version="1.0" encoding="UTF-8"?> <svg xmlns="http://www.w3.org/2000/svg" xmlns:xlink="http://www.w3.org/1999/xlink" viewBox="0 0 424.8051 137.43577"><defs><style>.cls-1{fill:url(#Degradado_sin_nombre_2);}.cls-2{fill:url(#Degradado_sin_nombre_2-2);}.cls-3{fill:#009aac;}.cls-4{fill:#4d4d4d;stroke:#4d4d4d;stroke-width:4.26508px;}.cls-4,.cls-5{stroke-miterlimit:10;}.cls-5{fill:#818282;stroke:#818282;stroke-width:1.74805px;}</style><linearGradient id="Degradado_sin_nombre_2" x1="22.14068" y1="49.71781" x2="98.16992" y2="64.92366" gradientUnits="userSpaceOnUse"><stop offset="0" stop-color="#f9b236"></stop><stop offset="1" stop-color="#ea561e"></stop></linearGradient><linearGradient id="Degradado_sin_nombre_2-2" x1="18.97942" y1="65.52411" x2="95.00866" y2="80.72996" xlink:href="#Degradado_sin_nombre_2"></linearGradient></defs><title>Recurso 2</title><g id="Capa_2" data-name="Capa 2"><g id="_1" data-name="1"><g id="_Grupo_" data-name="&lt;Grupo&gt;"><g id="_Grupo_2" data-name="&lt;Grupo&gt;"><g id="_Grupo_3" data-name="&lt;Grupo&gt;"><g id="_Grupo_4" data-name="&lt;Grupo&gt;"><circle id="_Elipse_" data-name="&lt;Elipse&gt;" class="cls-1" cx="56.40368" cy="56.57041" r="18.19047"></circle><path id="_Trazado_" data-name="&lt;Trazado&gt;" class="cls-2" d="M95.45292,61.89558S81.96651,80.601,63.65563,86.401c-14.14126,4.47926-27.07328-2.43062-27.07328-2.43062,4.52472,10.41692,23.52118,23.97651,41.30974,22.22277C97.39655,104.27027,114.88392,80.601,114.88392,80.601s12.68692-13.36285,3.4289-22.96376C107.26158,46.17673,95.45292,61.89558,95.45292,61.89558Z"></path></g></g><path id="_Trazado_2" data-name="&lt;Trazado&gt;" class="cls-3" d="M132.30866,12.85972a76.98156,76.98156,0,0,1,15.43591,25.126A75.13058,75.13058,0,0,1,152.441,66.6132a74.30031,74.30031,0,0,1-6.28728,27.81167,72.97091,72.97091,0,0,1-16.05756,22.97357,71.867,71.867,0,0,1-23.10791,14.98477,70.24831,70.24831,0,0,1-26.586,5.051,69.03063,69.03063,0,0,1-26.05357-5.22834,68.20709,68.20709,0,0,1-21.74821-14.4145,66.92756,66.92756,0,0,0,22.60482,12.02931,65.21738,65.21738,0,0,0,24.99137,2.54972,63.89392,63.89392,0,0,0,23.63929-6.90513,62.98363,62.98363,0,0,0,18.89989-15.03616A61.55841,61.55841,0,0,0,134.352,89.8152a60.34828,60.34828,0,0,0,2.88584-22.997,58.61141,58.61141,0,0,0-5.8315-21.925,57.95214,57.95214,0,0,0-13.43225-17.69874,10.15251,10.15251,0,0,1,13.5073-15.1607q.37609.3357.7114.69888Z"></path><path id="_Trazado_3" data-name="&lt;Trazado&gt;" class="cls-3" d="M.06,67.639A76.07127,76.07127,0,0,1,8.29216,38.95708,73.55257,73.55257,0,0,1,26.33381,16.44336,71.0448,71.0448,0,0,1,50.78892,3.0829,68.38652,68.38652,0,0,1,77.52942.30557,65.82562,65.82562,0,0,0,52.73,7.76464,63.40864,63.40864,0,0,0,33.50109,23.61091,60.82413,60.82413,0,0,0,22.33683,44.781a58.245,58.245,0,0,0-2.00421,22.858,10.19746,10.19746,0,1,1-20.30257.3383Z"></path></g><g id="_Grupo_5" data-name="&lt;Grupo&gt;"><path class="cls-4" d="M185.27388,84.45052a2.188,2.188,0,0,1-2.37842-2.37842V10.57088a2.14974,2.14974,0,0,1,2.37842-2.22973,2.10653,2.10653,0,0,1,2.22973,2.22973V82.0721A2.14974,2.14974,0,0,1,185.27388,84.45052Z"></path><path class="cls-4" d="M234.03193,68.69344a15.60642,15.60642,0,0,1-15.60839,15.6084,15.77081,15.77081,0,0,1-15.45972-12.93262c-.14868-1.33789.74316-2.22973,2.22974-2.22973a2.55431,2.55431,0,0,1,2.52709,2.22973,10.99849,10.99849,0,0,0,21.70313-2.5271c0-5.20288-2.0813-9.95971-12.78418-20.66235l-1.33789-1.33789c-6.24316-6.09473-12.63525-12.48682-12.63525-22.44629a15.60642,15.60642,0,0,1,15.60839-15.6084,15.77081,15.77081,0,0,1,15.45972,12.93262,1.92555,1.92555,0,0,1-2.08105,2.22973,2.59546,2.59546,0,0,1-2.67579-2.22973,10.99848,10.99848,0,0,0-21.70312,2.5271c0,5.20263,2.0813,9.95947,12.78394,20.66235l1.33789,1.33789C227.63984,52.34188,234.03193,58.734,234.03193,68.69344Z"></path><path class="cls-4" d="M279.37129,64.08529H259.15474L254.99238,82.0721a2.89479,2.89479,0,0,1-2.9729,2.37842c-1.48657,0-2.081-.89184-1.78393-2.37842l16.7976-71.947a2.28544,2.28544,0,0,1,4.45948,0l16.7976,71.947c.44605,1.48658-.29711,2.37842-1.78369,2.37842a3.00691,3.00691,0,0,1-2.97314-2.37842Zm-10.1084-43.25757-9.06763,38.64941h18.1355Z"></path><path class="cls-4" d="M306.57564,8.48983a2.10653,2.10653,0,0,1,2.22973,2.22973V79.84237h17.39234a2.10667,2.10667,0,0,1,2.22973,2.22973,2.14986,2.14986,0,0,1-2.22973,2.37842H307.91353a3.51112,3.51112,0,0,1-3.71631-3.71631V10.71956A2.14974,2.14974,0,0,1,306.57564,8.48983Z"></path><path class="cls-4" d="M372.874,8.48983a2.10667,2.10667,0,0,1,2.22973,2.22973V68.84212a15.6084,15.6084,0,1,1-31.2168,0V10.71956a2.14974,2.14974,0,0,1,2.37842-2.22973,2.10654,2.10654,0,0,1,2.22974,2.22973V68.84212a11.00025,11.00025,0,1,0,22.00049,0V10.71956A2.14974,2.14974,0,0,1,372.874,8.48983Z"></path><path class="cls-4" d="M422.67256,67.05843a17.25592,17.25592,0,0,1-17.24365,17.24341h-11.446a3.51112,3.51112,0,0,1-3.71631-3.71631V12.20614a3.51112,3.51112,0,0,1,3.71631-3.71631h11.446a17.25592,17.25592,0,0,1,17.24365,17.24341ZM418.0644,25.73324A12.62483,12.62483,0,0,0,405.42891,13.098h-10.5542V79.69369h10.5542A12.62483,12.62483,0,0,0,418.0644,67.05843Z"></path></g><g id="_Grupo_6" data-name="&lt;Grupo&gt;"><path class="cls-5" d="M182.44185,133.01107a.72527.72527,0,0,1-.78833-.78833V108.52352a.71257.71257,0,0,1,.78833-.739.69824.69824,0,0,1,.739.739v23.69922A.71258.71258,0,0,1,182.44185,133.01107Z"></path><path class="cls-5" d="M199.83418,127.78841a5.17289,5.17289,0,0,1-5.17358,5.17334,5.22721,5.22721,0,0,1-5.124-4.28638c-.04931-.4436.24634-.73925.739-.73925a.84682.84682,0,0,1,.83764.73925,3.64538,3.64538,0,0,0,7.19336-.83764c0-1.72461-.68969-3.30127-4.23706-6.84863l-.4436-.44361c-2.06934-2.02-4.188-4.13867-4.188-7.4397a5.17289,5.17289,0,0,1,5.17334-5.17358,5.22767,5.22767,0,0,1,5.12427,4.28662.63822.63822,0,0,1-.6897.739.86046.86046,0,0,1-.887-.739,3.64552,3.64552,0,0,0-7.19361.83765c0,1.72436.68995,3.301,4.23731,6.84863l.4436.44336C197.71553,122.36873,199.83418,124.48714,199.83418,127.78841Z"></path><path class="cls-5" d="M216.093,126.26107h-6.70068l-1.37964,5.96167a.95967.95967,0,0,1-.98535.78833c-.49268,0-.69-.29566-.59131-.78833l5.56762-23.84693a.75747.75747,0,0,1,1.478,0l5.56763,23.84693c.14795.49267-.09863.78833-.59131.78833a.99672.99672,0,0,1-.98535-.78833Zm-3.35034-14.33789-3.00537,12.8103h6.011Z"></path><path class="cls-5" d="M235.89937,117.39217a5.71982,5.71982,0,0,1-5.71558,5.71558h-3.104v9.06567a.71258.71258,0,0,1-.739.78833.72527.72527,0,0,1-.78833-.78833V109.01619a1.16366,1.16366,0,0,1,1.23169-1.23168h3.35059a5.71939,5.71939,0,0,1,5.71533,5.71533Zm-1.52759-3.89233a4.18436,4.18436,0,0,0-4.188-4.188h-3.104v12.26831h3.104a4.18421,4.18421,0,0,0,4.188-4.188Z"></path><path class="cls-5" d="M250.87715,132.27205l-3.646-9.1643h-3.59692v9.06567a.71245.71245,0,0,1-.739.78833.72527.72527,0,0,1-.78833-.78833V109.01619a1.16372,1.16372,0,0,1,1.23193-1.23168h3.35034a5.71939,5.71939,0,0,1,5.71533,5.71533v3.94165a5.58442,5.58442,0,0,1-3.104,5.12427l-.542.29565,3.74463,9.41064c.197.44336-.04932.739-.49292.739A1.24463,1.24463,0,0,1,250.87715,132.27205Zm-7.24292-10.69189,3.10425.04932a4.18453,4.18453,0,0,0,4.188-4.188v-3.94165a4.18452,4.18452,0,0,0-4.188-4.188h-3.10425Z"></path><path class="cls-5" d="M265.3127,109.36117h-4.68091v9.80493h2.85791a.69824.69824,0,0,1,.739.739.71257.71257,0,0,1-.739.78833h-2.85791v10.741h4.68091a.78833.78833,0,0,1,0,1.57666h-4.92725a1.16367,1.16367,0,0,1-1.23169-1.23169V109.01619a1.16366,1.16366,0,0,1,1.23169-1.23168h4.92725a.78833.78833,0,1,1,0,1.57666Z"></path><path class="cls-5" d="M291.03071,127.24642a5.71939,5.71939,0,0,1-5.71533,5.71533h-3.79394a1.16366,1.16366,0,0,1-1.23169-1.23169V109.06551a1.16367,1.16367,0,0,1,1.23169-1.23169h3.79394a5.71939,5.71939,0,0,1,5.71533,5.71533Zm-1.52734-13.69727a4.18451,4.18451,0,0,0-4.188-4.188h-3.49829v22.07324h3.49829a4.18452,4.18452,0,0,0,4.188-4.188Z"></path><path class="cls-5" d="M303.54536,109.36117h-4.68091v9.80493h2.85767a.69832.69832,0,0,1,.73926.739.71263.71263,0,0,1-.73926.78833h-2.85767v10.741h4.68091a.78833.78833,0,0,1,0,1.57666h-4.92724a1.16367,1.16367,0,0,1-1.23169-1.23169V109.01619a1.16366,1.16366,0,0,1,1.23169-1.23168h4.92724a.78833.78833,0,1,1,0,1.57666Z"></path><path class="cls-5" d="M328.22871,127.98543a.69846.69846,0,0,1,.68994.78833,5.22742,5.22742,0,0,1-5.12426,4.28662,5.17273,5.17273,0,0,1-5.17334-5.17358V113.15511a5.17273,5.17273,0,0,1,5.17334-5.17358,5.22743,5.22743,0,0,1,5.12426,4.28662.63837.63837,0,0,1-.68994.739.86005.86005,0,0,1-.88672-.739,3.64551,3.64551,0,0,0-7.1936.83764v14.73194a3.63784,3.63784,0,0,0,3.646,3.646,3.56949,3.56949,0,0,0,3.5476-2.75927A.86006.86006,0,0,1,328.22871,127.98543Z"></path><path class="cls-5" d="M345.66987,127.78841a5.17334,5.17334,0,0,1-10.34668,0V113.05648a5.17334,5.17334,0,0,1,10.34668,0Zm-1.52734-14.73193a3.646,3.646,0,1,0-7.292,0v14.73193a3.646,3.646,0,1,0,7.292,0Z"></path><path class="cls-5" d="M362.66768,127.24642a5.7194,5.7194,0,0,1-5.71534,5.71533h-3.7937a1.16373,1.16373,0,0,1-1.23193-1.23169V109.06551a1.16374,1.16374,0,0,1,1.23193-1.23169h3.7937a5.7194,5.7194,0,0,1,5.71534,5.71533Zm-1.52735-13.69727a4.18451,4.18451,0,0,0-4.188-4.188h-3.49829v22.07324h3.49829a4.18452,4.18452,0,0,0,4.188-4.188Z"></path><path class="cls-5" d="M375.18232,109.36117h-4.6809v9.80493h2.85791a.69824.69824,0,0,1,.739.739.71257.71257,0,0,1-.739.78833h-2.85791v10.741h4.6809a.78833.78833,0,0,1,0,1.57666h-4.92724a1.16367,1.16367,0,0,1-1.23169-1.23169V109.01619a1.16366,1.16366,0,0,1,1.23169-1.23168h4.92724a.78833.78833,0,1,1,0,1.57666Z"></path><path class="cls-5" d="M383.11421,107.83382a.69825.69825,0,0,1,.739.739v22.91088h5.76465a.69813.69813,0,0,1,.739.739.71246.71246,0,0,1-.739.78833h-6.0603a1.16367,1.16367,0,0,1-1.23169-1.23169V108.57284A.71258.71258,0,0,1,383.11421,107.83382Z"></path><path class="cls-5" d="M406.31978,127.98543a.69847.69847,0,0,1,.68994.78833,5.22743,5.22743,0,0,1-5.12427,4.28662,5.17273,5.17273,0,0,1-5.17334-5.17358V113.15511a5.17273,5.17273,0,0,1,5.17334-5.17358,5.22744,5.22744,0,0,1,5.12427,4.28662.63838.63838,0,0,1-.68994.739.86.86,0,0,1-.88672-.739,3.64552,3.64552,0,0,0-7.19361.83764v14.73194a3.63784,3.63784,0,0,0,3.646,3.646,3.5695,3.5695,0,0,0,3.54761-2.75927A.86006.86006,0,0,1,406.31978,127.98543Z"></path><path class="cls-5" d="M423.76118,127.78841a5.17334,5.17334,0,1,1-10.34668,0V113.05648a5.17334,5.17334,0,1,1,10.34668,0Zm-1.52734-14.73193a3.646,3.646,0,1,0-7.292,0v14.73193a3.646,3.646,0,1,0,7.292,0Z"></path></g></g></g></g></svg> 